<mxfile host="app.diagrams.net" modified="2021-04-07T14:03:16.742Z" agent="5.0 (Macintosh; Intel Mac OS X 11_1_0) AppleWebKit/537.36 (KHTML, like Gecko) Chrome/89.0.4389.114 Safari/537.36" etag="dQzFf0glLnyhrzM3gOjI" version="14.5.8" type="github">
  <diagram id="MtsyBUoRu2WaPheRBINY" name="Page-1">
    <mxGraphModel dx="2125" dy="753" grid="1" gridSize="10" guides="1" tooltips="1" connect="1" arrows="1" fold="1" page="1" pageScale="1" pageWidth="827" pageHeight="1169" math="0" shadow="0">
      <root>
        <mxCell id="0" />
        <mxCell id="1" parent="0" />
        <mxCell id="IajXS2rCrofhb3_J83O--1" value="" style="rounded=1;whiteSpace=wrap;html=1;strokeWidth=2;fillWeight=4;hachureGap=8;hachureAngle=45;fillColor=#dae8fc;sketch=1;strokeColor=#6c8ebf;" vertex="1" parent="1">
          <mxGeometry x="39" y="40" width="130" height="30" as="geometry" />
        </mxCell>
        <mxCell id="IajXS2rCrofhb3_J83O--2" value="" style="rounded=1;whiteSpace=wrap;html=1;strokeWidth=2;fillWeight=4;hachureGap=8;hachureAngle=45;sketch=1;" vertex="1" parent="1">
          <mxGeometry x="18.5" y="70" width="171.5" height="180" as="geometry" />
        </mxCell>
        <mxCell id="IajXS2rCrofhb3_J83O--3" value="member" style="text;strokeColor=none;fillColor=none;html=1;fontSize=24;fontStyle=1;verticalAlign=middle;align=center;" vertex="1" parent="1">
          <mxGeometry x="39" y="35" width="100" height="40" as="geometry" />
        </mxCell>
        <mxCell id="IajXS2rCrofhb3_J83O--4" value="" style="rounded=1;whiteSpace=wrap;html=1;strokeWidth=2;fillWeight=4;hachureGap=8;hachureAngle=45;fillColor=#dae8fc;sketch=1;strokeColor=#6c8ebf;" vertex="1" parent="1">
          <mxGeometry x="40" y="315" width="130" height="30" as="geometry" />
        </mxCell>
        <mxCell id="IajXS2rCrofhb3_J83O--5" value="" style="rounded=1;whiteSpace=wrap;html=1;strokeWidth=2;fillWeight=4;hachureGap=8;hachureAngle=45;sketch=1;" vertex="1" parent="1">
          <mxGeometry x="20" y="345" width="170" height="135" as="geometry" />
        </mxCell>
        <mxCell id="IajXS2rCrofhb3_J83O--6" value="orders&lt;span style=&quot;color: rgba(0 , 0 , 0 , 0) ; font-family: monospace ; font-size: 0px ; font-weight: 400&quot;&gt;%3CmxGraphModel%3E%3Croot%3E%3CmxCell%20id%3D%220%22%2F%3E%3CmxCell%20id%3D%221%22%20parent%3D%220%22%2F%3E%3CmxCell%20id%3D%222%22%20value%3D%22%22%20style%3D%22rounded%3D1%3BwhiteSpace%3Dwrap%3Bhtml%3D1%3BstrokeWidth%3D2%3BfillWeight%3D4%3BhachureGap%3D8%3BhachureAngle%3D45%3BfillColor%3D%23dae8fc%3Bsketch%3D1%3BstrokeColor%3D%236c8ebf%3B%22%20vertex%3D%221%22%20parent%3D%221%22%3E%3CmxGeometry%20x%3D%2240%22%20y%3D%2290%22%20width%3D%22130%22%20height%3D%2230%22%20as%3D%22geometry%22%2F%3E%3C%2FmxCell%3E%3CmxCell%20id%3D%223%22%20value%3D%22%22%20style%3D%22rounded%3D1%3BwhiteSpace%3Dwrap%3Bhtml%3D1%3BstrokeWidth%3D2%3BfillWeight%3D4%3BhachureGap%3D8%3BhachureAngle%3D45%3Bsketch%3D1%3B%22%20vertex%3D%221%22%20parent%3D%221%22%3E%3CmxGeometry%20x%3D%2240%22%20y%3D%22120%22%20width%3D%22130%22%20height%3D%22120%22%20as%3D%22geometry%22%2F%3E%3C%2FmxCell%3E%3CmxCell%20id%3D%224%22%20value%3D%22member%22%20style%3D%22text%3BstrokeColor%3Dnone%3BfillColor%3Dnone%3Bhtml%3D1%3BfontSize%3D24%3BfontStyle%3D1%3BverticalAlign%3Dmiddle%3Balign%3Dcenter%3B%22%20vertex%3D%221%22%20parent%3D%221%22%3E%3CmxGeometry%20x%3D%2240%22%20y%3D%2285%22%20width%3D%22100%22%20height%3D%2240%22%20as%3D%22geometry%22%2F%3E%3C%2FmxCell%3E%3C%2Froot%3E%3C%2FmxGraphModel%3E&lt;/span&gt;" style="text;strokeColor=none;fillColor=none;html=1;fontSize=24;fontStyle=1;verticalAlign=middle;align=center;" vertex="1" parent="1">
          <mxGeometry x="30" y="310" width="100" height="40" as="geometry" />
        </mxCell>
        <mxCell id="IajXS2rCrofhb3_J83O--7" value="" style="rounded=1;whiteSpace=wrap;html=1;strokeWidth=2;fillWeight=4;hachureGap=8;hachureAngle=45;fillColor=#dae8fc;sketch=1;strokeColor=#6c8ebf;" vertex="1" parent="1">
          <mxGeometry x="307" y="314.35" width="130" height="30" as="geometry" />
        </mxCell>
        <mxCell id="IajXS2rCrofhb3_J83O--8" value="" style="rounded=1;whiteSpace=wrap;html=1;strokeWidth=2;fillWeight=4;hachureGap=8;hachureAngle=45;sketch=1;" vertex="1" parent="1">
          <mxGeometry x="290" y="344.35" width="170" height="120" as="geometry" />
        </mxCell>
        <mxCell id="IajXS2rCrofhb3_J83O--9" value="order_item&lt;span style=&quot;color: rgba(0 , 0 , 0 , 0) ; font-family: monospace ; font-size: 0px ; font-weight: 400&quot;&gt;%3CmxGraphModel%3E%3Croot%3E%3CmxCell%20id%3D%220%22%2F%3E%3CmxCell%20id%3D%221%22%20parent%3D%220%22%2F%3E%3CmxCell%20id%3D%222%22%20value%3D%22%22%20style%3D%22rounded%3D1%3BwhiteSpace%3Dwrap%3Bhtml%3D1%3BstrokeWidth%3D2%3BfillWeight%3D4%3BhachureGap%3D8%3BhachureAngle%3D45%3BfillColor%3D%23dae8fc%3Bsketch%3D1%3BstrokeColor%3D%236c8ebf%3B%22%20vertex%3D%221%22%20parent%3D%221%22%3E%3CmxGeometry%20x%3D%2240%22%20y%3D%2290%22%20width%3D%22130%22%20height%3D%2230%22%20as%3D%22geometry%22%2F%3E%3C%2FmxCell%3E%3CmxCell%20id%3D%223%22%20value%3D%22%22%20style%3D%22rounded%3D1%3BwhiteSpace%3Dwrap%3Bhtml%3D1%3BstrokeWidth%3D2%3BfillWeight%3D4%3BhachureGap%3D8%3BhachureAngle%3D45%3Bsketch%3D1%3B%22%20vertex%3D%221%22%20parent%3D%221%22%3E%3CmxGeometry%20x%3D%2240%22%20y%3D%22120%22%20width%3D%22130%22%20height%3D%22120%22%20as%3D%22geometry%22%2F%3E%3C%2FmxCell%3E%3CmxCell%20id%3D%224%22%20value%3D%22member%22%20style%3D%22text%3BstrokeColor%3Dnone%3BfillColor%3Dnone%3Bhtml%3D1%3BfontSize%3D24%3BfontStyle%3D1%3BverticalAlign%3Dmiddle%3Balign%3Dcenter%3B%22%20vertex%3D%221%22%20parent%3D%221%22%3E%3CmxGeometry%20x%3D%2240%22%20y%3D%2285%22%20width%3D%22100%22%20height%3D%2240%22%20as%3D%22geometry%22%2F%3E%3C%2FmxCell%3E%3C%2Froot%3E%3C%2FmxGraphModel%f&lt;/span&gt;" style="text;strokeColor=none;fillColor=none;html=1;fontSize=24;fontStyle=1;verticalAlign=middle;align=center;" vertex="1" parent="1">
          <mxGeometry x="322" y="309.35" width="100" height="40" as="geometry" />
        </mxCell>
        <mxCell id="IajXS2rCrofhb3_J83O--10" value="" style="rounded=1;whiteSpace=wrap;html=1;strokeWidth=2;fillWeight=4;hachureGap=8;hachureAngle=45;fillColor=#dae8fc;sketch=1;strokeColor=#6c8ebf;" vertex="1" parent="1">
          <mxGeometry x="40" y="549" width="130" height="30" as="geometry" />
        </mxCell>
        <mxCell id="IajXS2rCrofhb3_J83O--11" value="" style="rounded=1;whiteSpace=wrap;html=1;strokeWidth=2;fillWeight=4;hachureGap=8;hachureAngle=45;sketch=1;" vertex="1" parent="1">
          <mxGeometry x="20" y="579" width="190" height="105" as="geometry" />
        </mxCell>
        <mxCell id="IajXS2rCrofhb3_J83O--12" value="payment" style="text;strokeColor=none;fillColor=none;html=1;fontSize=24;fontStyle=1;verticalAlign=middle;align=center;" vertex="1" parent="1">
          <mxGeometry x="55" y="544" width="100" height="40" as="geometry" />
        </mxCell>
        <mxCell id="IajXS2rCrofhb3_J83O--13" value="" style="rounded=1;whiteSpace=wrap;html=1;strokeWidth=2;fillWeight=4;hachureGap=8;hachureAngle=45;fillColor=#dae8fc;sketch=1;strokeColor=#6c8ebf;" vertex="1" parent="1">
          <mxGeometry x="540" y="314.35" width="130" height="30" as="geometry" />
        </mxCell>
        <mxCell id="IajXS2rCrofhb3_J83O--14" value="" style="rounded=1;whiteSpace=wrap;html=1;strokeWidth=2;fillWeight=4;hachureGap=8;hachureAngle=45;sketch=1;" vertex="1" parent="1">
          <mxGeometry x="522" y="344.35" width="178" height="145.65" as="geometry" />
        </mxCell>
        <mxCell id="IajXS2rCrofhb3_J83O--15" value="product" style="text;strokeColor=none;fillColor=none;html=1;fontSize=24;fontStyle=1;verticalAlign=middle;align=center;" vertex="1" parent="1">
          <mxGeometry x="540" y="309.35" width="100" height="40" as="geometry" />
        </mxCell>
        <mxCell id="IajXS2rCrofhb3_J83O--16" value="" style="line;strokeWidth=2;html=1;" vertex="1" parent="1">
          <mxGeometry x="190" y="400" width="100" height="10" as="geometry" />
        </mxCell>
        <mxCell id="IajXS2rCrofhb3_J83O--17" value="" style="line;strokeWidth=2;html=1;rotation=90;" vertex="1" parent="1">
          <mxGeometry x="190" y="399.35" width="22" height="10" as="geometry" />
        </mxCell>
        <mxCell id="IajXS2rCrofhb3_J83O--18" value="" style="line;strokeWidth=2;html=1;rotation=45;" vertex="1" parent="1">
          <mxGeometry x="265.36" y="410.79" width="33.15" height="10" as="geometry" />
        </mxCell>
        <mxCell id="IajXS2rCrofhb3_J83O--19" value="" style="line;strokeWidth=2;html=1;rotation=-40;" vertex="1" parent="1">
          <mxGeometry x="270" y="391.85" width="22" height="10" as="geometry" />
        </mxCell>
        <mxCell id="IajXS2rCrofhb3_J83O--20" value="" style="line;strokeWidth=2;html=1;rotation=90;" vertex="1" parent="1">
          <mxGeometry x="260" y="399.85" width="22" height="10" as="geometry" />
        </mxCell>
        <mxCell id="IajXS2rCrofhb3_J83O--21" value="" style="line;strokeWidth=2;html=1;rotation=90;" vertex="1" parent="1">
          <mxGeometry x="75" y="276" width="60" height="10" as="geometry" />
        </mxCell>
        <mxCell id="IajXS2rCrofhb3_J83O--22" value="" style="line;strokeWidth=2;html=1;rotation=180;" vertex="1" parent="1">
          <mxGeometry x="93" y="255" width="22" height="10" as="geometry" />
        </mxCell>
        <mxCell id="IajXS2rCrofhb3_J83O--23" value="" style="line;strokeWidth=2;html=1;rotation=135;" vertex="1" parent="1">
          <mxGeometry x="86.15" y="299.35" width="23" height="10" as="geometry" />
        </mxCell>
        <mxCell id="IajXS2rCrofhb3_J83O--24" value="" style="line;strokeWidth=2;html=1;rotation=45;" vertex="1" parent="1">
          <mxGeometry x="102" y="300.99911407785316" width="22" height="10" as="geometry" />
        </mxCell>
        <mxCell id="IajXS2rCrofhb3_J83O--29" value="" style="line;strokeWidth=2;html=1;" vertex="1" parent="1">
          <mxGeometry x="460" y="399.85" width="60" height="10" as="geometry" />
        </mxCell>
        <mxCell id="IajXS2rCrofhb3_J83O--30" value="" style="line;strokeWidth=2;html=1;rotation=90;" vertex="1" parent="1">
          <mxGeometry x="458.43" y="395.43" width="22" height="19.83" as="geometry" />
        </mxCell>
        <mxCell id="IajXS2rCrofhb3_J83O--33" value="" style="line;strokeWidth=2;html=1;rotation=90;" vertex="1" parent="1">
          <mxGeometry x="499.85" y="399.85" width="22" height="9.7" as="geometry" />
        </mxCell>
        <mxCell id="IajXS2rCrofhb3_J83O--37" value="" style="group;rotation=90;" vertex="1" connectable="0" parent="1">
          <mxGeometry x="70" y="504" width="70" height="22.5" as="geometry" />
        </mxCell>
        <mxCell id="IajXS2rCrofhb3_J83O--34" value="" style="line;strokeWidth=2;html=1;rotation=90;" vertex="1" parent="IajXS2rCrofhb3_J83O--37">
          <mxGeometry y="6" width="70" height="10" as="geometry" />
        </mxCell>
        <mxCell id="IajXS2rCrofhb3_J83O--35" value="" style="line;strokeWidth=2;html=1;rotation=180;" vertex="1" parent="IajXS2rCrofhb3_J83O--37">
          <mxGeometry x="24" y="-19" width="22" height="10" as="geometry" />
        </mxCell>
        <mxCell id="IajXS2rCrofhb3_J83O--36" value="" style="line;strokeWidth=2;html=1;rotation=180;" vertex="1" parent="IajXS2rCrofhb3_J83O--37">
          <mxGeometry x="24" y="28" width="22" height="10" as="geometry" />
        </mxCell>
        <UserObject label="id : bigint" placeholders="1" id="IajXS2rCrofhb3_J83O--38">
          <mxCell style="text;html=1;strokeColor=none;fillColor=none;align=center;verticalAlign=middle;whiteSpace=wrap;overflow=hidden;" vertex="1" parent="1">
            <mxGeometry x="-21" y="75" width="160" height="20" as="geometry" />
          </mxCell>
        </UserObject>
        <UserObject label="email : varchar(255)" placeholders="1" id="IajXS2rCrofhb3_J83O--39">
          <mxCell style="text;html=1;strokeColor=none;fillColor=none;align=center;verticalAlign=middle;whiteSpace=wrap;overflow=hidden;" vertex="1" parent="1">
            <mxGeometry x="-1" y="155" width="160" height="20" as="geometry" />
          </mxCell>
        </UserObject>
        <UserObject label="is_certification : bit(1)" placeholders="1" id="IajXS2rCrofhb3_J83O--40">
          <mxCell style="text;html=1;strokeColor=none;fillColor=none;align=center;verticalAlign=middle;whiteSpace=wrap;overflow=hidden;" vertex="1" parent="1">
            <mxGeometry x="4" y="175" width="160" height="20" as="geometry" />
          </mxCell>
        </UserObject>
        <UserObject label="is_dormant : bit(1)" placeholders="1" id="IajXS2rCrofhb3_J83O--41">
          <mxCell style="text;html=1;strokeColor=none;fillColor=none;align=center;verticalAlign=middle;whiteSpace=wrap;overflow=hidden;" vertex="1" parent="1">
            <mxGeometry x="-4" y="195" width="160" height="20" as="geometry" />
          </mxCell>
        </UserObject>
        <UserObject label="member_id : varchar(255)" placeholders="1" id="IajXS2rCrofhb3_J83O--42">
          <mxCell style="text;html=1;strokeColor=none;fillColor=none;align=center;verticalAlign=middle;whiteSpace=wrap;overflow=hidden;" vertex="1" parent="1">
            <mxGeometry x="13.5" y="95" width="160" height="20" as="geometry" />
          </mxCell>
        </UserObject>
        <UserObject label="member_name : varchar(255)" placeholders="1" id="IajXS2rCrofhb3_J83O--43">
          <mxCell style="text;html=1;strokeColor=none;fillColor=none;align=center;verticalAlign=middle;whiteSpace=wrap;overflow=hidden;" vertex="1" parent="1">
            <mxGeometry x="15" y="115" width="180" height="20" as="geometry" />
          </mxCell>
        </UserObject>
        <UserObject label="password :&amp;nbsp;varchar(255)" placeholders="1" id="IajXS2rCrofhb3_J83O--44">
          <mxCell style="text;html=1;strokeColor=none;fillColor=none;align=center;verticalAlign=middle;whiteSpace=wrap;overflow=hidden;" vertex="1" parent="1">
            <mxGeometry x="9.999999999999998" y="135" width="160" height="20" as="geometry" />
          </mxCell>
        </UserObject>
        <UserObject label="use_marketing : bit(1)" placeholders="1" id="IajXS2rCrofhb3_J83O--45">
          <mxCell style="text;html=1;strokeColor=none;fillColor=none;align=center;verticalAlign=middle;whiteSpace=wrap;overflow=hidden;" vertex="1" parent="1">
            <mxGeometry x="4" y="215" width="160" height="20" as="geometry" />
          </mxCell>
        </UserObject>
        <UserObject label="order_id : bigint" placeholders="1" id="IajXS2rCrofhb3_J83O--48">
          <mxCell style="text;html=1;strokeColor=none;fillColor=none;align=center;verticalAlign=middle;whiteSpace=wrap;overflow=hidden;" vertex="1" parent="1">
            <mxGeometry x="-10" y="350" width="160" height="20" as="geometry" />
          </mxCell>
        </UserObject>
        <UserObject label="patment_id : bigint" placeholders="1" id="IajXS2rCrofhb3_J83O--49">
          <mxCell style="text;html=1;strokeColor=none;fillColor=none;align=center;verticalAlign=middle;whiteSpace=wrap;overflow=hidden;" vertex="1" parent="1">
            <mxGeometry x="-1" y="584" width="160" height="20" as="geometry" />
          </mxCell>
        </UserObject>
        <UserObject label="order_item_id : bigint" placeholders="1" id="IajXS2rCrofhb3_J83O--50">
          <mxCell style="text;html=1;strokeColor=none;fillColor=none;align=center;verticalAlign=middle;whiteSpace=wrap;overflow=hidden;" vertex="1" parent="1">
            <mxGeometry x="279" y="345" width="160" height="20" as="geometry" />
          </mxCell>
        </UserObject>
        <UserObject label="id : bigint" placeholders="1" id="IajXS2rCrofhb3_J83O--53">
          <mxCell style="text;html=1;strokeColor=none;fillColor=none;align=center;verticalAlign=middle;whiteSpace=wrap;overflow=hidden;" vertex="1" parent="1">
            <mxGeometry x="481" y="349.35" width="160" height="20" as="geometry" />
          </mxCell>
        </UserObject>
        <UserObject label="order_code : varchar(255)" placeholders="1" id="IajXS2rCrofhb3_J83O--54">
          <mxCell style="text;html=1;strokeColor=none;fillColor=none;align=center;verticalAlign=middle;whiteSpace=wrap;overflow=hidden;" vertex="1" parent="1">
            <mxGeometry x="18.5" y="369.35" width="160" height="20" as="geometry" />
          </mxCell>
        </UserObject>
        <UserObject label="total_price : int" placeholders="1" id="IajXS2rCrofhb3_J83O--55">
          <mxCell style="text;html=1;strokeColor=none;fillColor=none;align=center;verticalAlign=middle;whiteSpace=wrap;overflow=hidden;" vertex="1" parent="1">
            <mxGeometry x="-10" y="386.85" width="160" height="20" as="geometry" />
          </mxCell>
        </UserObject>
        <UserObject label="&lt;b&gt;member_id &lt;/b&gt;: varchar(255)" placeholders="1" id="IajXS2rCrofhb3_J83O--57">
          <mxCell style="text;html=1;strokeColor=none;fillColor=none;align=center;verticalAlign=middle;whiteSpace=wrap;overflow=hidden;" vertex="1" parent="1">
            <mxGeometry x="20" y="405.79" width="160" height="20" as="geometry" />
          </mxCell>
        </UserObject>
        <UserObject label="total_price : int" placeholders="1" id="IajXS2rCrofhb3_J83O--58">
          <mxCell style="text;html=1;strokeColor=none;fillColor=none;align=center;verticalAlign=middle;whiteSpace=wrap;overflow=hidden;" vertex="1" parent="1">
            <mxGeometry x="-10" y="440" width="160" height="20" as="geometry" />
          </mxCell>
        </UserObject>
        <UserObject label="amount_of_payment : int" placeholders="1" id="IajXS2rCrofhb3_J83O--59">
          <mxCell style="text;html=1;strokeColor=none;fillColor=none;align=center;verticalAlign=middle;whiteSpace=wrap;overflow=hidden;" vertex="1" parent="1">
            <mxGeometry x="15" y="604" width="160" height="20" as="geometry" />
          </mxCell>
        </UserObject>
        <UserObject label="is_approval : bit(1)" placeholders="1" id="IajXS2rCrofhb3_J83O--60">
          <mxCell style="text;html=1;strokeColor=none;fillColor=none;align=center;verticalAlign=middle;whiteSpace=wrap;overflow=hidden;" vertex="1" parent="1">
            <mxGeometry y="624" width="160" height="20" as="geometry" />
          </mxCell>
        </UserObject>
        <UserObject label="payment_method : varchar(255)" placeholders="1" id="IajXS2rCrofhb3_J83O--61">
          <mxCell style="text;html=1;strokeColor=none;fillColor=none;align=center;verticalAlign=middle;whiteSpace=wrap;overflow=hidden;" vertex="1" parent="1">
            <mxGeometry x="20" y="644" width="190" height="20" as="geometry" />
          </mxCell>
        </UserObject>
        <UserObject label="number_of_product : int" placeholders="1" id="IajXS2rCrofhb3_J83O--62">
          <mxCell style="text;html=1;strokeColor=none;fillColor=none;align=center;verticalAlign=middle;whiteSpace=wrap;overflow=hidden;" vertex="1" parent="1">
            <mxGeometry x="287" y="365" width="160" height="20" as="geometry" />
          </mxCell>
        </UserObject>
        <UserObject label="&lt;b&gt;order_code&lt;/b&gt; : varchar(30)" placeholders="1" id="IajXS2rCrofhb3_J83O--63">
          <mxCell style="text;html=1;strokeColor=none;fillColor=none;align=center;verticalAlign=middle;whiteSpace=wrap;overflow=hidden;" vertex="1" parent="1">
            <mxGeometry x="291" y="384.35" width="160" height="20" as="geometry" />
          </mxCell>
        </UserObject>
        <UserObject label="&lt;b&gt;product_code&lt;/b&gt; : varchar(30)" placeholders="1" id="IajXS2rCrofhb3_J83O--64">
          <mxCell style="text;html=1;strokeColor=none;fillColor=none;align=center;verticalAlign=middle;whiteSpace=wrap;overflow=hidden;" vertex="1" parent="1">
            <mxGeometry x="299" y="404.35" width="160" height="20" as="geometry" />
          </mxCell>
        </UserObject>
        <UserObject label="totalprice : int" placeholders="1" id="IajXS2rCrofhb3_J83O--65">
          <mxCell style="text;html=1;strokeColor=none;fillColor=none;align=center;verticalAlign=middle;whiteSpace=wrap;overflow=hidden;" vertex="1" parent="1">
            <mxGeometry x="260" y="424.35" width="160" height="20" as="geometry" />
          </mxCell>
        </UserObject>
        <UserObject label="product_code : varchar(30)" placeholders="1" id="IajXS2rCrofhb3_J83O--66">
          <mxCell style="text;html=1;strokeColor=none;fillColor=none;align=center;verticalAlign=middle;whiteSpace=wrap;overflow=hidden;" vertex="1" parent="1">
            <mxGeometry x="525" y="369.35" width="160" height="20" as="geometry" />
          </mxCell>
        </UserObject>
        <UserObject label="current_stock : int" placeholders="1" id="IajXS2rCrofhb3_J83O--67">
          <mxCell style="text;html=1;strokeColor=none;fillColor=none;align=center;verticalAlign=middle;whiteSpace=wrap;overflow=hidden;" vertex="1" parent="1">
            <mxGeometry x="500.85" y="389.35" width="160" height="20" as="geometry" />
          </mxCell>
        </UserObject>
        <UserObject label="is_sale : bit(1)" placeholders="1" id="IajXS2rCrofhb3_J83O--68">
          <mxCell style="text;html=1;strokeColor=none;fillColor=none;align=center;verticalAlign=middle;whiteSpace=wrap;overflow=hidden;" vertex="1" parent="1">
            <mxGeometry x="491" y="408.79" width="160" height="20" as="geometry" />
          </mxCell>
        </UserObject>
        <UserObject label="price : int" placeholders="1" id="IajXS2rCrofhb3_J83O--69">
          <mxCell style="text;html=1;strokeColor=none;fillColor=none;align=center;verticalAlign=middle;whiteSpace=wrap;overflow=hidden;" vertex="1" parent="1">
            <mxGeometry x="478" y="429.79" width="160" height="20" as="geometry" />
          </mxCell>
        </UserObject>
        <UserObject label="product_name : varchar(255)" placeholders="1" id="IajXS2rCrofhb3_J83O--70">
          <mxCell style="text;html=1;strokeColor=none;fillColor=none;align=center;verticalAlign=middle;whiteSpace=wrap;overflow=hidden;" vertex="1" parent="1">
            <mxGeometry x="531" y="449.79" width="160" height="20" as="geometry" />
          </mxCell>
        </UserObject>
        <UserObject label="&lt;b&gt;payment_id &lt;/b&gt;: varchar(255)" placeholders="1" id="IajXS2rCrofhb3_J83O--72">
          <mxCell style="text;html=1;strokeColor=none;fillColor=none;align=center;verticalAlign=middle;whiteSpace=wrap;overflow=hidden;" vertex="1" parent="1">
            <mxGeometry x="21" y="424.35" width="160" height="20" as="geometry" />
          </mxCell>
        </UserObject>
        <mxCell id="IajXS2rCrofhb3_J83O--74" value="" style="ellipse;whiteSpace=wrap;html=1;strokeWidth=2;fillColor=none;fontSize=6;" vertex="1" parent="1">
          <mxGeometry x="100" y="293" width="9.35" height="11" as="geometry" />
        </mxCell>
      </root>
    </mxGraphModel>
  </diagram>
</mxfile>
